<?xml version="1.0" standalone="no"?>
<!DOCTYPE svg PUBLIC "-//W3C//DTD SVG 20010904//EN"
 "http://www.w3.org/TR/2001/REC-SVG-20010904/DTD/svg10.dtd">
<svg version="1.0" xmlns="http://www.w3.org/2000/svg"
 width="2048.000000pt" height="2048.000000pt" viewBox="0 0 2048.000000 2048.000000"
 preserveAspectRatio="xMidYMid meet">
<metadata>
Created by potrace 1.14, written by Peter Selinger 2001-2017
</metadata>
<g transform="translate(0.000000,2048.000000) scale(0.100000,-0.100000)"
fill="#000000" stroke="none">
<path d="M9879 19615 c-2 -1 -67 -6 -144 -9 -77 -4 -156 -8 -175 -10 -19 -2
-77 -7 -128 -11 -52 -4 -103 -8 -115 -10 -12 -2 -52 -6 -89 -10 -37 -3 -77 -8
-90 -10 -13 -2 -48 -6 -79 -10 -31 -3 -65 -7 -75 -9 -11 -2 -44 -7 -74 -11
-52 -6 -260 -39 -325 -51 -45 -8 -61 -11 -180 -35 -60 -12 -119 -23 -130 -25
-42 -7 -332 -75 -361 -84 -17 -6 -40 -12 -50 -14 -10 -2 -62 -16 -114 -30 -52
-15 -102 -29 -110 -30 -95 -22 -585 -184 -760 -252 -492 -192 -918 -393 -1335
-632 -71 -41 -140 -80 -152 -86 -13 -6 -23 -14 -23 -18 0 -5 -5 -8 -10 -8 -12
0 -337 -203 -367 -230 -7 -5 -16 -10 -21 -10 -4 0 -17 -8 -28 -18 -10 -10 -39
-31 -64 -48 -87 -58 -233 -162 -270 -191 -8 -6 -55 -42 -105 -79 -49 -37 -92
-70 -95 -73 -3 -4 -21 -18 -42 -33 -20 -15 -42 -33 -50 -40 -7 -8 -33 -29 -58
-48 -76 -59 -82 -64 -112 -92 -16 -15 -48 -42 -71 -60 -22 -18 -55 -46 -73
-63 -18 -16 -65 -59 -105 -95 -232 -207 -616 -597 -786 -797 -38 -45 -50 -59
-92 -108 -56 -65 -119 -142 -171 -209 -8 -10 -27 -33 -41 -50 -40 -48 -212
-276 -257 -342 -23 -32 -56 -79 -73 -104 -152 -215 -386 -588 -504 -805 -21
-38 -49 -88 -61 -110 -54 -98 -182 -352 -241 -480 -79 -169 -185 -413 -184
-422 0 -2 -11 -29 -25 -60 -94 -211 -262 -710 -355 -1053 -7 -25 -14 -49 -15
-55 -20 -71 -49 -192 -89 -365 -2 -8 -10 -44 -19 -80 -8 -36 -17 -81 -20 -100
-3 -19 -12 -66 -20 -105 -8 -38 -17 -86 -20 -105 -3 -19 -10 -60 -16 -90 -6
-30 -13 -68 -15 -85 -12 -84 -15 -108 -29 -205 -8 -58 -18 -132 -21 -165 -3
-33 -8 -71 -10 -85 -2 -14 -7 -56 -10 -95 -4 -38 -8 -80 -10 -93 -2 -12 -7
-71 -11 -130 -3 -59 -8 -125 -9 -147 -21 -291 -21 -966 0 -1175 2 -19 6 -73
10 -120 6 -85 11 -143 20 -235 3 -27 8 -72 11 -100 2 -27 7 -66 9 -85 3 -19 7
-55 10 -80 3 -25 8 -56 10 -70 3 -14 7 -45 10 -70 3 -25 12 -83 20 -130 7 -47
16 -98 19 -115 108 -648 304 -1331 570 -1988 31 -76 61 -146 66 -155 5 -9 23
-50 40 -91 63 -147 229 -488 312 -641 17 -30 40 -73 52 -95 11 -22 23 -42 26
-45 3 -3 12 -18 20 -35 56 -112 415 -683 487 -775 7 -8 42 -58 80 -110 37 -52
71 -99 75 -105 5 -5 59 -75 120 -155 92 -119 292 -363 375 -457 10 -12 50 -57
89 -100 90 -102 559 -571 649 -650 39 -34 86 -75 105 -93 19 -17 87 -74 150
-127 63 -53 120 -101 125 -107 6 -7 26 -23 45 -36 19 -13 41 -30 48 -37 8 -7
30 -26 50 -41 21 -15 39 -29 42 -33 3 -3 43 -33 89 -68 606 -453 1188 -797
1861 -1099 118 -53 368 -157 400 -167 14 -4 39 -13 55 -21 96 -43 446 -162
710 -240 283 -84 498 -138 750 -189 11 -3 40 -9 65 -15 96 -22 448 -81 598
-100 86 -11 168 -22 182 -25 14 -2 59 -7 100 -10 41 -3 89 -7 106 -10 17 -2
71 -6 120 -10 49 -4 104 -8 122 -10 202 -24 956 -24 1277 0 22 2 81 6 130 10
50 3 106 8 125 10 82 9 138 15 190 20 61 7 109 13 158 21 17 3 49 7 70 10 72
8 117 15 172 24 30 5 70 12 88 15 17 3 47 7 65 10 263 44 679 140 992 230 685
197 1299 454 1993 831 59 33 291 170 412 245 146 90 609 409 690 476 8 7 53
42 99 78 138 107 408 330 452 374 9 9 52 47 95 86 87 77 517 504 604 600 120
133 241 271 271 310 13 17 26 32 29 35 23 21 305 380 350 447 8 11 58 81 110
155 116 161 340 500 340 513 0 2 22 39 49 82 102 165 213 368 344 628 80 160
104 210 164 345 14 30 33 73 43 95 10 22 41 96 69 165 29 69 60 145 70 170 72
171 162 437 288 845 18 59 108 411 129 505 25 115 82 394 88 435 3 22 13 76
21 120 8 44 17 103 20 130 3 28 10 73 15 100 5 28 12 73 15 100 3 28 10 84 15
125 5 41 12 107 15 145 3 39 8 84 10 100 2 17 7 74 10 127 4 54 8 119 10 145
26 358 22 910 -9 1293 -4 41 -9 102 -12 135 -4 33 -8 78 -9 100 -3 43 -12 128
-20 185 -3 19 -7 53 -10 75 -7 64 -17 138 -21 160 -3 11 -9 52 -14 90 -15 101
-57 331 -86 470 -14 66 -28 131 -30 145 -3 14 -10 43 -16 65 -5 22 -12 48 -14
58 -2 10 -6 27 -9 37 -3 10 -7 27 -9 37 -21 109 -139 513 -218 748 -76 226
-204 563 -264 693 -13 29 -24 54 -24 57 0 2 -14 34 -31 72 -17 37 -38 84 -46
103 -50 111 -192 397 -267 535 -47 87 -86 163 -86 167 0 4 -4 8 -10 8 -5 0
-10 5 -10 10 0 6 -18 40 -40 76 -22 36 -40 67 -40 68 0 3 -74 126 -130 216
-47 76 -258 391 -315 470 -25 36 -54 76 -63 90 -9 14 -23 31 -30 39 -7 8 -21
26 -30 40 -9 14 -24 35 -34 46 -9 11 -58 74 -109 140 -51 66 -95 122 -99 125
-3 3 -25 30 -50 60 -25 30 -47 57 -50 60 -3 3 -32 37 -64 75 -255 305 -737
785 -1046 1041 -8 7 -49 41 -91 76 -42 35 -93 77 -114 93 -21 17 -76 59 -121
95 -45 36 -92 73 -105 82 -48 35 -134 98 -144 105 -62 49 -510 353 -521 353
-1 0 -46 27 -100 61 -102 64 -479 279 -490 279 -3 0 -19 9 -35 21 -16 11 -29
17 -29 13 0 -3 -6 -1 -13 5 -14 11 -224 117 -369 185 -341 161 -795 336 -1198
462 -149 47 -174 54 -440 124 -227 60 -569 133 -765 164 -16 3 -75 12 -130 21
-55 9 -111 18 -125 20 -14 2 -47 7 -75 10 -27 3 -61 7 -75 10 -14 2 -50 7 -80
10 -30 3 -68 7 -85 9 -16 3 -64 7 -105 11 -41 4 -91 8 -110 10 -19 2 -78 7
-130 10 -52 4 -117 9 -145 12 -61 5 -891 13 -896 8z"/>
</g>
</svg>
